<svg xmlns="http://www.w3.org/2000/svg"  viewBox="0 0 64 64" width="64px" height="64px">
    <g id="css">
        <path fill="#7bbeeb" d="M5.015,7.244l5.466,45.246c0.194,1.603,1.337,2.935,2.9,3.379l17.535,4.977 c0.709,0.201,1.46,0.206,2.172,0.013l18.442-4.996c1.614-0.437,2.789-1.817,2.955-3.471l4.549-45.187C59.153,6.024,58.22,5,57.025,5 H7.019C5.809,5,4.87,6.051,5.015,7.244z"/><path fill="#ace3ff" d="M57.025,5H32v56c0.366,0.002,0.732-0.045,1.088-0.141l18.442-4.996 c1.614-0.437,2.789-1.817,2.955-3.471l4.549-45.187C59.153,6.024,58.22,5,57.025,5z"/><path fill="#8d6c9f" d="M32.025,62c-0.465,0-0.931-0.064-1.383-0.192l-17.535-4.977c-1.955-0.555-3.376-2.211-3.62-4.221 L4.021,7.364c-0.103-0.85,0.165-1.705,0.733-2.347C5.328,4.371,6.153,4,7.02,4h50.006c0.854,0,1.672,0.362,2.244,0.995 c0.567,0.628,0.845,1.47,0.76,2.311L55.48,52.493c-0.208,2.052-1.69,3.794-3.69,4.334l-18.44,4.996 C32.916,61.941,32.471,62,32.025,62z M7.02,6C6.721,6,6.448,6.122,6.252,6.344C6.06,6.561,5.973,6.838,6.008,7.124l0,0l5.466,45.246 c0.146,1.207,1.002,2.203,2.18,2.537l17.536,4.977c0.535,0.151,1.1,0.155,1.637,0.01l18.441-4.996 c1.205-0.326,2.099-1.373,2.223-2.605l4.549-45.188c0.028-0.283-0.062-0.556-0.253-0.769C57.59,6.119,57.319,6,57.025,6H7.02z"/><path fill="#8d6c9f" d="M7 12c-.553 0-1-.447-1-1V9c0-.553.447-1 1-1s1 .447 1 1v2C8 11.553 7.553 12 7 12zM12 12c-.553 0-1-.447-1-1V9c0-.553.447-1 1-1s1 .447 1 1v2C13 11.553 12.553 12 12 12zM17 12c-.553 0-1-.447-1-1V9c0-.553.447-1 1-1s1 .447 1 1v2C18 11.553 17.553 12 17 12zM22 12c-.553 0-1-.447-1-1V9c0-.553.447-1 1-1s1 .447 1 1v2C23 11.553 22.553 12 22 12zM27 12c-.553 0-1-.447-1-1V9c0-.553.447-1 1-1s1 .447 1 1v2C28 11.553 27.553 12 27 12zM32 12c-.553 0-1-.447-1-1V9c0-.553.447-1 1-1s1 .447 1 1v2C33 11.553 32.553 12 32 12zM37 12c-.553 0-1-.447-1-1V9c0-.553.447-1 1-1s1 .447 1 1v2C38 11.553 37.553 12 37 12zM42 12c-.553 0-1-.447-1-1V9c0-.553.447-1 1-1s1 .447 1 1v2C43 11.553 42.553 12 42 12zM47 12c-.553 0-1-.447-1-1V9c0-.553.447-1 1-1s1 .447 1 1v2C48 11.553 47.553 12 47 12zM52 12c-.553 0-1-.447-1-1V9c0-.553.447-1 1-1s1 .447 1 1v2C53 11.553 52.553 12 52 12zM57 12c-.553 0-1-.447-1-1V9c0-.553.447-1 1-1s1 .447 1 1v2C58 11.553 57.553 12 57 12zM39.999 54.806c-.44 0-.844-.293-.964-.738-.145-.533.17-1.082.703-1.227l2-.542c.534-.146 1.083.17 1.227.703.145.533-.17 1.082-.703 1.227l-2 .542C40.174 54.795 40.086 54.806 39.999 54.806zM32.024 57.003l-5.298-1.504c-.531-.15-.84-.704-.688-1.235.15-.531.701-.842 1.235-.688l4.763 1.352 3.702-1.002c.534-.148 1.083.17 1.227.703.145.533-.17 1.083-.703 1.227L32.024 57.003z"/><path fill="#fff8f8" d="M15.5 30l1.238 2.262L19 33.5l-2.262 1.238L15.5 37l-1.238-2.262L12 33.5l2.262-1.238L15.5 30zM47.502 47l.876 1.61L50 49.502l-1.622.876L47.502 52l-.892-1.622L45 49.502l1.61-.892L47.502 47zM52.504 23l.531.962L54 24.498l-.966.529L52.504 26l-.538-.973L51 24.498l.966-.536L52.504 23z"/><path fill="#faefde" d="M47.018,17H17c-0.614,0-1.083,0.548-0.987,1.155L16.776,23h24.598l-0.709,6H25v6h14.956l-0.901,7.625 l-6.961,2.122l-6.147-2.082l-0.444-2.821C25.426,39.358,25.007,39,24.515,39h-4.049c-0.614,0-1.083,0.549-0.988,1.156l1.014,6.439 c0.057,0.362,0.31,0.663,0.658,0.78l10.553,3.574C31.804,50.983,31.908,51,32.013,51c0.095,0,0.19-0.014,0.282-0.042l11.643-3.548 c0.374-0.114,0.646-0.439,0.691-0.827l2.891-24.465l0.475-4.019C48.064,17.514,47.607,17,47.018,17z"/><path fill="#8d6c9f" d="M32.014,52c-0.211,0-0.421-0.034-0.624-0.102l-10.56-3.576c-0.701-0.236-1.209-0.838-1.325-1.57 l-1.015-6.441c-0.091-0.578,0.075-1.165,0.455-1.61c0.381-0.445,0.935-0.7,1.521-0.7h4.05c0.991,0,1.822,0.711,1.976,1.69 l0.35,2.222l5.27,1.784l6.029-1.837L38.831,36H25c-0.553,0-1-0.447-1-1v-6c0-0.553,0.447-1,1-1h14.776l0.473-4H16.775 c-0.492,0-0.911-0.358-0.988-0.845l-0.763-4.846c-0.091-0.577,0.075-1.164,0.455-1.609C15.86,16.255,16.414,16,17,16h30.019 c0.566,0,1.106,0.243,1.483,0.666c0.375,0.423,0.553,0.988,0.486,1.551l-3.365,28.482c-0.093,0.782-0.639,1.437-1.393,1.666 l-11.643,3.55C32.402,51.972,32.209,52,32.014,52z M20.466,40l1.015,6.439l10.543,3.563l11.623-3.55L47,18H17l0.63,4h23.744 c0.286,0,0.558,0.122,0.747,0.336c0.19,0.213,0.279,0.498,0.246,0.781l-0.709,6C41.599,29.621,41.172,30,40.665,30H26v4h13.956 c0.285,0,0.558,0.122,0.747,0.336c0.19,0.213,0.279,0.498,0.246,0.781l-0.9,7.625c-0.047,0.395-0.322,0.724-0.701,0.839 l-6.961,2.122c-0.201,0.062-0.415,0.059-0.612-0.009l-6.147-2.082c-0.353-0.119-0.609-0.424-0.668-0.792L24.515,40H20.466z"/>
    </g>
    <g id="html">
        <path fill="#f6d397" d="M5.015,7.244l5.466,45.246c0.194,1.603,1.337,2.935,2.9,3.379l17.535,4.977 c0.709,0.201,1.46,0.206,2.172,0.013l18.442-4.996c1.614-0.437,2.789-1.817,2.955-3.471l4.549-45.187C59.153,6.024,58.22,5,57.025,5 H7.019C5.809,5,4.87,6.051,5.015,7.244z"/><path fill="#f9e3ae" d="M57.025,5H32v56c0.366,0.002,0.732-0.045,1.088-0.141l18.442-4.996 c1.614-0.437,2.789-1.817,2.955-3.471l4.549-45.187C59.153,6.024,58.22,5,57.025,5z"/><path fill="#8d6c9f" d="M32.025,62c-0.465,0-0.931-0.064-1.383-0.192l-17.535-4.977c-1.955-0.555-3.376-2.211-3.62-4.221 L4.021,7.364c-0.103-0.85,0.165-1.705,0.733-2.347C5.328,4.371,6.153,4,7.02,4h50.006c0.854,0,1.672,0.362,2.244,0.995 c0.567,0.628,0.845,1.47,0.76,2.311L55.48,52.493c-0.208,2.052-1.69,3.794-3.69,4.334l-18.44,4.996 C32.916,61.941,32.471,62,32.025,62z M7.02,6C6.721,6,6.448,6.122,6.252,6.344C6.06,6.561,5.973,6.838,6.008,7.124l0,0l5.466,45.246 c0.146,1.207,1.002,2.203,2.18,2.537l17.536,4.977c0.535,0.151,1.1,0.155,1.637,0.01l18.441-4.996 c1.205-0.326,2.099-1.373,2.223-2.605l4.549-45.188c0.028-0.283-0.062-0.556-0.253-0.769C57.59,6.119,57.319,6,57.025,6H7.02z"/><path fill="#8d6c9f" d="M7 12c-.553 0-1-.447-1-1V9c0-.553.447-1 1-1s1 .447 1 1v2C8 11.553 7.553 12 7 12zM12 12c-.553 0-1-.447-1-1V9c0-.553.447-1 1-1s1 .447 1 1v2C13 11.553 12.553 12 12 12zM17 12c-.553 0-1-.447-1-1V9c0-.553.447-1 1-1s1 .447 1 1v2C18 11.553 17.553 12 17 12zM22 12c-.553 0-1-.447-1-1V9c0-.553.447-1 1-1s1 .447 1 1v2C23 11.553 22.553 12 22 12zM27 12c-.553 0-1-.447-1-1V9c0-.553.447-1 1-1s1 .447 1 1v2C28 11.553 27.553 12 27 12zM32 12c-.553 0-1-.447-1-1V9c0-.553.447-1 1-1s1 .447 1 1v2C33 11.553 32.553 12 32 12zM37 12c-.553 0-1-.447-1-1V9c0-.553.447-1 1-1s1 .447 1 1v2C38 11.553 37.553 12 37 12zM42 12c-.553 0-1-.447-1-1V9c0-.553.447-1 1-1s1 .447 1 1v2C43 11.553 42.553 12 42 12zM47 12c-.553 0-1-.447-1-1V9c0-.553.447-1 1-1s1 .447 1 1v2C48 11.553 47.553 12 47 12zM52 12c-.553 0-1-.447-1-1V9c0-.553.447-1 1-1s1 .447 1 1v2C53 11.553 52.553 12 52 12zM57 12c-.553 0-1-.447-1-1V9c0-.553.447-1 1-1s1 .447 1 1v2C58 11.553 57.553 12 57 12z"/><path fill="#faefde" d="M47.018,17H17c-0.614,0-1.083,0.548-0.987,1.155l2.52,16.001C18.61,34.642,19.029,35,19.521,35h19.31 c0.599,0,1.063,0.523,0.993,1.117l-0.769,6.508l-6.961,2.122l-6.147-2.082l-0.444-2.821C25.426,39.358,25.007,39,24.515,39h-4.049 c-0.614,0-1.083,0.549-0.988,1.156l1.014,6.439c0.057,0.362,0.31,0.663,0.658,0.78l10.553,3.574C31.804,50.983,31.908,51,32.013,51 c0.095,0,0.19-0.014,0.282-0.042l11.643-3.548c0.374-0.114,0.646-0.439,0.691-0.827l1.945-16.465C46.645,29.523,46.181,29,45.582,29 H24.65c-0.492,0-0.911-0.358-0.988-0.844l-0.63-4C22.936,23.549,23.405,23,24.02,23h22.507c0.507,0,0.934-0.379,0.993-0.883 l0.475-4.019C48.064,17.514,47.607,17,47.018,17z"/><path fill="#8d6c9f" d="M32.014 52c-.211 0-.421-.034-.624-.102l-10.56-3.576c-.701-.236-1.209-.838-1.325-1.57l-1.015-6.441c-.091-.578.075-1.165.455-1.61.381-.445.935-.7 1.521-.7h4.05c.991 0 1.822.711 1.976 1.69l.35 2.222 5.27 1.784 6.029-1.837L38.831 36H19.521c-.991 0-1.822-.711-1.976-1.69l-2.521-16c-.091-.577.075-1.164.455-1.609C15.86 16.255 16.414 16 17 16h30.019c.565 0 1.105.242 1.481.665.376.422.554.987.488 1.55l-.475 4.02C48.395 23.241 47.541 24 46.527 24H24.02l.631 4h20.932c.571 0 1.116.245 1.495.672.379.426.559.996.491 1.563l-1.945 16.465c-.093.784-.64 1.438-1.395 1.667l-11.641 3.549C32.402 51.972 32.209 52 32.014 52zM20.466 40l1.015 6.439 10.543 3.563 11.623-3.55L45.582 30H24.649c-.991 0-1.822-.711-1.976-1.69l-.63-3.999c-.091-.578.075-1.165.455-1.61.381-.445.935-.7 1.521-.7h22.508L47 18H17l2.521 16h19.31c.571 0 1.116.245 1.495.672.379.426.559.996.491 1.563l-.769 6.508c-.047.395-.322.724-.701.839l-6.961 2.122c-.201.062-.415.059-.612-.009l-6.147-2.082c-.353-.119-.609-.424-.668-.792L24.515 40H20.466zM39.999 54.806c-.44 0-.844-.293-.964-.738-.145-.533.17-1.082.703-1.227l2-.542c.534-.146 1.083.17 1.227.703.145.533-.17 1.082-.703 1.227l-2 .542C40.174 54.795 40.086 54.806 39.999 54.806zM32.024 57.003l-5.298-1.504c-.531-.15-.84-.704-.688-1.235.15-.531.701-.842 1.235-.688l4.763 1.352 3.702-1.002c.534-.148 1.083.17 1.227.703.145.533-.17 1.083-.703 1.227L32.024 57.003z"/><path fill="#faefde" d="M50.5 23l1.238 2.262L54 26.5l-2.262 1.238L50.5 30l-1.238-2.262L47 26.5l2.262-1.238L50.5 23zM47.502 47l.876 1.61L50 49.502l-1.622.876L47.502 52l-.892-1.622L45 49.502l1.61-.892L47.502 47zM12.498 35l.529.962.962.536-.962.529L12.498 38l-.536-.973L11 36.498l.962-.536L12.498 35z"/>
    </g>
    <g id="js">
        <path fill="#f6d397" d="M51,7H13c-3.31,0-6,2.69-6,6v38c0,3.31,2.69,6,6,6h38c3.31,0,6-2.69,6-6V13C57,9.69,54.31,7,51,7z M45.88,52c-2.76,0-4.85-1.11-6.2-3.29l1.76-1.21c0.84,1.25,2.1,2.6,4.34,2.6c2.57,0,3.72-1.59,3.72-3.17	c0-2.25-1.71-3.02-3.53-3.83l-1.07-0.47c-3.33-1.45-4.57-3-4.57-5.71c0-2.87,2.13-4.8,5.3-4.8c2.16,0,3.63,0.67,4.74,2.22	l-1.69,1.11c-0.8-1.03-1.77-1.5-3.05-1.5c-1.77,0-3.06,1.21-3.06,2.88c0,2,1.4,2.77,3.24,3.59l1.08,0.47	c3.87,1.7,5.11,3.15,5.11,5.99C52,50.65,48.84,52,45.88,52z M27.27,52c-2.66,0-4.78-1.53-5.92-3.25l2.02-1.2	c0.95,1.21,2.19,1.84,3.63,1.84c2.24,0,3.33-1.24,3.33-3.79V32.12H33V46.3C33,51.01,29.89,52,27.27,52z"/><path fill="#f9e3ae" d="M11,7h42c2.209,0,4,1.791,4,4l0,0c0,1.657-1.343,3-3,3H10c-1.657,0-3-1.343-3-3l0,0	C7,8.791,8.791,7,11,7z"/><path fill="#8d6c9f" d="M51.424,58H12.577C8.951,58,6,55.049,6,51.423V12.577C6,8.951,8.951,6,12.577,6h38.847	C55.05,6,58,8.95,58,12.576v38.849C58,55.05,55.05,58,51.424,58z M12.577,8C10.053,8,8,10.053,8,12.577v38.846	C8,53.947,10.053,56,12.577,56h38.847C53.947,56,56,53.947,56,51.424V12.576C56,10.053,53.947,8,51.424,8H12.577z"/><path fill="#8d6c9f" d="M47.69,39.06l-1.07-0.47c-1.88-0.83-2.05-1.13-2.05-1.76c0-0.55,0.4-0.88,1.06-0.88	c0.74,0,1.26,0.22,1.89,1.36c0.13,0.25,0.36,0.43,0.63,0.49c0.27,0.07,0.56,0.02,0.79-0.13l3.35-2.2c0.44-0.29,0.58-0.86,0.32-1.32	c-1.53-2.75-3.75-4.03-6.98-4.03c-4.23,0-7.3,2.86-7.3,6.8c0,4.43,2.92,6.3,5.76,7.54l1.07,0.47c2.11,0.94,2.34,1.24,2.34,2	c0,0.97-0.94,1.17-1.72,1.17c-1.55,0-2.3-1.05-3.18-2.52c-0.14-0.24-0.38-0.41-0.65-0.47c-0.26-0.06-0.55,0-0.77,0.15l-3.38,2.31	c-0.41,0.28-0.56,0.82-0.34,1.27c1.68,3.37,4.59,5.16,8.42,5.16c4.93,0,8.12-2.8,8.12-7.12C54,42.67,51.58,40.76,47.69,39.06z M45.88,52c-2.76,0-4.85-1.11-6.2-3.29l1.76-1.21c0.84,1.25,2.1,2.6,4.34,2.6c2.57,0,3.72-1.59,3.72-3.17	c0-2.25-1.71-3.02-3.53-3.83l-1.07-0.47c-3.33-1.45-4.57-3-4.57-5.71c0-2.87,2.13-4.8,5.3-4.8c2.16,0,3.63,0.67,4.74,2.22	l-1.69,1.11c-0.8-1.03-1.77-1.5-3.05-1.5c-1.77,0-3.06,1.21-3.06,2.88c0,2,1.4,2.77,3.24,3.59l1.08,0.47	c3.87,1.7,5.11,3.15,5.11,5.99C52,50.65,48.84,52,45.88,52z"/><path fill="#a183b5" d="M52,46.88c0,3.77-3.16,5.12-6.12,5.12c-2.76,0-4.85-1.11-6.2-3.29l1.76-1.21	c0.84,1.25,2.1,2.6,4.34,2.6c2.57,0,3.72-1.59,3.72-3.17c0-2.25-1.71-3.02-3.53-3.83l-1.07-0.47c-3.33-1.45-4.57-3-4.57-5.71	c0-2.87,2.13-4.8,5.3-4.8c2.16,0,3.63,0.67,4.74,2.22l-1.69,1.11c-0.8-1.03-1.77-1.5-3.05-1.5c-1.77,0-3.06,1.21-3.06,2.88	c0,2,1.4,2.77,3.24,3.59l1.08,0.47C50.76,42.59,52,44.04,52,46.88z"/><path fill="#8d6c9f" d="M34,30.12h-4.67c-0.55,0-1,0.45-1,1V45.6c0,1.79-0.53,1.79-1.33,1.79c-1,0-1.83-0.56-2.46-1.68	c-0.14-0.24-0.36-0.41-0.62-0.48c-0.26-0.06-0.54-0.02-0.77,0.11l-3.66,2.19c-0.45,0.27-0.61,0.83-0.39,1.29	c1.14,2.39,3.97,5.18,8.17,5.18c4.84,0,7.73-2.88,7.73-7.7V31.12C35,30.57,34.55,30.12,34,30.12z M33,46.3c0,4.71-3.11,5.7-5.73,5.7	c-2.66,0-4.78-1.53-5.92-3.25l2.02-1.2c0.95,1.21,2.19,1.84,3.63,1.84c2.24,0,3.33-1.24,3.33-3.79V32.12H33V46.3z"/><path fill="#a183b5" d="M33,32.12V46.3c0,4.71-3.11,5.7-5.73,5.7c-2.66,0-4.78-1.53-5.92-3.25l2.02-1.2	c0.95,1.21,2.19,1.84,3.63,1.84c2.24,0,3.33-1.24,3.33-3.79V32.12H33z"/><path fill="#8d6c9f" d="M17,12c-0.552,0-1,0.448-1,1v2c0,0.552,0.448,1,1,1s1-0.448,1-1v-2C18,12.448,17.552,12,17,12z M12,12c-0.552,0-1,0.448-1,1v2c0,0.552,0.448,1,1,1s1-0.448,1-1v-2C13,12.448,12.552,12,12,12z M32,12c-0.552,0-1,0.448-1,1v2	c0,0.552,0.448,1,1,1s1-0.448,1-1v-2C33,12.448,32.552,12,32,12z M37,12c-0.552,0-1,0.448-1,1v2c0,0.552,0.448,1,1,1s1-0.448,1-1v-2	C38,12.448,37.552,12,37,12z M42,12c-0.552,0-1,0.448-1,1v2c0,0.552,0.448,1,1,1s1-0.448,1-1v-2C43,12.448,42.552,12,42,12z M47,12	c-0.552,0-1,0.448-1,1v2c0,0.552,0.448,1,1,1s1-0.448,1-1v-2C48,12.448,47.552,12,47,12z M52,12c-0.552,0-1,0.448-1,1v2	c0,0.552,0.448,1,1,1s1-0.448,1-1v-2C53,12.448,52.552,12,52,12z M22,12c-0.552,0-1,0.448-1,1v2c0,0.552,0.448,1,1,1s1-0.448,1-1v-2	C23,12.448,22.552,12,22,12z M27,12c-0.552,0-1,0.448-1,1v2c0,0.552,0.448,1,1,1s1-0.448,1-1v-2C28,12.448,27.552,12,27,12z"/>
    </g>
    <g id="react">
        <circle cx="32" cy="33" r="6" fill="#ed7899"/><path fill="#8d6c9f" d="M32,40c-3.859,0-7-3.141-7-7s3.141-7,7-7s7,3.141,7,7S35.859,40,32,40z M32,28 c-2.757,0-5,2.243-5,5s2.243,5,5,5s5-2.243,5-5S34.757,28,32,28z"/><path fill="#8d6c9f" d="M32,46C15.178,46,2,40.29,2,33s13.178-13,30-13s30,5.71,30,13S48.822,46,32,46z M32,22 C16.822,22,4,27.037,4,33s12.822,11,28,11s28-5.037,28-11S47.178,22,32,22z"/><path fill="#8d6c9f" d="M20.316,59.827c-1.222,0-2.335-0.28-3.316-0.847c-3.149-1.818-4.425-6.291-3.593-12.596 c0.793-6.004,3.397-13.065,7.334-19.885c3.938-6.819,8.752-12.606,13.555-16.295C39.341,6.332,43.853,5.202,47,7.02l0,0 c3.149,1.818,4.425,6.291,3.593,12.596C49.8,25.619,47.195,32.681,43.259,39.5c-3.938,6.819-8.752,12.606-13.555,16.295 C26.232,58.46,23.013,59.827,20.316,59.827z M43.684,8.179c-2.234,0-5.079,1.239-8.17,3.613c-4.6,3.532-9.23,9.11-13.04,15.708 c-3.809,6.598-6.324,13.396-7.084,19.146c-0.709,5.371,0.243,9.234,2.61,10.602s6.187,0.26,10.486-3.04 c4.6-3.532,9.23-9.11,13.04-15.708c3.809-6.598,6.324-13.396,7.084-19.146c0.709-5.371-0.243-9.234-2.61-10.602l0,0 C45.336,8.368,44.556,8.179,43.684,8.179z"/><path fill="#8d6c9f" d="M43.684,59.827c-2.696,0-5.916-1.367-9.388-4.032c-4.803-3.688-9.617-9.476-13.555-16.295 c-3.937-6.819-6.541-13.881-7.334-19.885C12.575,13.311,13.851,8.838,17,7.02c3.15-1.816,7.661-0.686,12.704,3.186 c4.803,3.688,9.617,9.476,13.555,16.295c3.937,6.819,6.541,13.881,7.334,19.885C51.425,52.689,50.149,57.162,47,58.98 C46.019,59.547,44.904,59.827,43.684,59.827z M20.316,8.179c-0.873,0-1.651,0.189-2.316,0.573l0,0 c-2.367,1.367-3.319,5.23-2.61,10.602c0.76,5.75,3.275,12.549,7.084,19.146c3.81,6.598,8.44,12.176,13.04,15.708 c4.298,3.3,8.119,4.407,10.486,3.04s3.319-5.23,2.61-10.602c-0.76-5.75-3.275-12.549-7.084-19.146 c-3.81-6.598-8.44-12.176-13.04-15.708C25.396,9.419,22.551,8.179,20.316,8.179z"/><path fill="#8d6c9f" d="M10.463,46.972c-0.044,0-0.088-0.003-0.133-0.009l-1.982-0.264 c-0.548-0.073-0.933-0.575-0.859-1.123c0.072-0.548,0.572-0.933,1.123-0.859l1.982,0.264c0.548,0.073,0.933,0.575,0.859,1.123 C11.387,46.606,10.957,46.972,10.463,46.972z"/><path fill="#8d6c9f" d="M8.194,51.885c-0.536,0-0.98-0.426-0.998-0.967c-0.019-0.552,0.413-1.014,0.966-1.032 l1.998-0.067c0.551-0.037,1.015,0.413,1.033,0.966c0.019,0.552-0.413,1.014-0.966,1.032l-1.999,0.067 C8.218,51.885,8.206,51.885,8.194,51.885z"/><path fill="#8d6c9f" d="M9.009,57.093c-0.429,0-0.825-0.277-0.956-0.708c-0.161-0.528,0.136-1.087,0.664-1.248 l1.913-0.584c0.53-0.166,1.088,0.136,1.248,0.664c0.162,0.528-0.136,1.087-0.664,1.248l-1.913,0.584 C9.203,57.079,9.105,57.093,9.009,57.093z"/><path fill="#8d6c9f" d="M11.552,61.852c-0.281,0-0.561-0.118-0.759-0.349c-0.359-0.419-0.312-1.051,0.107-1.41 l1.518-1.303c0.418-0.358,1.049-0.312,1.41,0.107c0.359,0.419,0.312,1.051-0.107,1.41l-1.518,1.303 C12.015,61.772,11.783,61.852,11.552,61.852z"/><path fill="#8d6c9f" d="M55.771,18.718c-0.02,0-0.039-0.001-0.059-0.002l-1.996-0.115 c-0.552-0.031-0.973-0.504-0.94-1.056c0.031-0.551,0.507-0.971,1.056-0.94l1.996,0.115c0.552,0.031,0.973,0.504,0.94,1.056 C56.737,18.307,56.296,18.718,55.771,18.718z"/><path fill="#8d6c9f" d="M53.591,13.797c-0.487,0-0.913-0.355-0.988-0.852c-0.082-0.546,0.295-1.056,0.841-1.138 l1.978-0.297c0.548-0.072,1.056,0.296,1.138,0.841c0.082,0.546-0.295,1.056-0.841,1.138l-1.978,0.297 C53.69,13.793,53.64,13.797,53.591,13.797z"/><path fill="#8d6c9f" d="M52.215,9.336c-0.36,0-0.708-0.194-0.887-0.536c-0.257-0.488-0.067-1.093,0.422-1.35l1.771-0.929 c0.488-0.256,1.093-0.068,1.35,0.422c0.257,0.488,0.067,1.093-0.422,1.35l-1.771,0.929C52.53,9.299,52.371,9.336,52.215,9.336z"/><path fill="#8d6c9f" d="M49.266,5.919c-0.2,0-0.402-0.06-0.578-0.185c-0.45-0.32-0.556-0.944-0.236-1.395l1.158-1.631 c0.32-0.45,0.943-0.557,1.395-0.236c0.45,0.32,0.556,0.944,0.236,1.395l-1.158,1.631C49.887,5.772,49.579,5.919,49.266,5.919z"/>
    </g>
    <g id="figma">
        <radialGradient id="HmR7yFzDwzQip~WPZtVBGa" cx="32" cy="5823.5" r="30.775" gradientTransform="translate(0 -5792)" gradientUnits="userSpaceOnUse"><stop offset="0" stop-color="#adecfd"/><stop offset=".193" stop-color="#b9effd"/><stop offset=".703" stop-color="#d5f6ff"/><stop offset="1" stop-color="#dff8ff"/></radialGradient><path fill="url(#HmR7yFzDwzQip~WPZtVBGa)" d="M59.106,20H60.5c2.168,0,3.892-1.998,3.422-4.243C63.579,14.122,62.054,13,60.384,13h-3.673 c-1.608,0-2.525-0.681-2.684-1.665C53.824,10.082,54.785,9,56,9h0.384c1.67,0,3.195-1.122,3.538-2.757 C60.392,3.998,58.668,2,56.5,2H34.006H32.5H8.614C6.944,2,5.42,3.122,5.078,4.757C4.608,7.002,6.332,9,8.5,9h1.394 c0.996,0,1.919,0.681,2.078,1.665C12.176,11.918,11.215,13,10,13H3.616c-1.67,0-3.195,1.122-3.538,2.757 C-0.392,18.002,1.332,20,3.5,20H4c3.314,0,6,2.686,6,6l0,0c0,3.314-2.686,6-6,6H3.616c-1.67,0-3.195,1.122-3.538,2.757 C-0.392,37.002,1.332,39,3.5,39h1.417c0.996,0,1.919,0.681,2.078,1.665C7.199,41.918,6.238,43,5.023,43H3.5 c-2.168,0-3.892,1.998-3.422,4.243C0.421,48.878,1.946,50,3.616,50H7.4c1.494,0,2.413,0.681,2.573,1.665 C10.176,52.918,9.215,54,8,54H6.616c-1.67,0-3.195,1.122-3.538,2.757C2.608,59.002,4.332,61,6.5,61h24.494H32.5h25.886 c1.67,0,3.195-1.122,3.537-2.757C62.392,55.998,60.668,54,58.5,54h-3.394c-0.996,0-1.919-0.681-2.078-1.665 C52.824,51.082,53.785,50,55,50h5.384c1.67,0,3.195-1.122,3.538-2.757C64.392,44.998,62.668,43,60.5,43H60c-3.314,0-6-2.686-6-6 l0,0c0-3.314,2.686-6,6-6h0.384c1.67,0,3.195-1.122,3.538-2.757C64.392,25.998,62.668,24,60.5,24H59 c-1.215,0-2.176-1.082-1.973-2.335C57.187,20.681,58.11,20,59.106,20z"/><linearGradient id="HmR7yFzDwzQip~WPZtVBGb" x1="40.5" x2="40.5" y1="40" y2="23" gradientUnits="userSpaceOnUse"><stop offset="0" stop-color="#155cdc"/><stop offset=".486" stop-color="#2383e4"/><stop offset="1" stop-color="#2fb3ee"/></linearGradient><circle cx="40.5" cy="31.5" r="8.5" fill="url(#HmR7yFzDwzQip~WPZtVBGb)"/><linearGradient id="HmR7yFzDwzQip~WPZtVBGc" x1="40.058" x2="40.058" y1="6" y2="23" gradientUnits="userSpaceOnUse"><stop offset="0" stop-color="#ff8769"/><stop offset=".214" stop-color="#ff887d"/><stop offset=".524" stop-color="#fd8896"/><stop offset=".793" stop-color="#fc89a5"/><stop offset=".989" stop-color="#fc89aa"/><stop offset="1" stop-color="#fc89aa"/></linearGradient><path fill="url(#HmR7yFzDwzQip~WPZtVBGc)" d="M31.115,23V6h9.444C45.238,6,49,9.852,49,14.53S45.238,23,40.56,23H31.115z"/><linearGradient id="HmR7yFzDwzQip~WPZtVBGd" x1="59.995" x2="59.995" y1="22" y2="5" gradientTransform="rotate(180 41.468 14)" gradientUnits="userSpaceOnUse"><stop offset="0" stop-color="#fd6b53"/><stop offset=".007" stop-color="#fd6b53"/><stop offset=".989" stop-color="#f96599"/><stop offset="1" stop-color="#f96599"/></linearGradient><path fill="url(#HmR7yFzDwzQip~WPZtVBGd)" d="M31.885,6v17H22.44C17.762,23,14,19.148,14,14.47S17.762,6,22.44,6H31.885z"/><linearGradient id="HmR7yFzDwzQip~WPZtVBGe" x1="59.937" x2="59.937" y1="5" y2="-12" gradientTransform="rotate(180 41.468 14)" gradientUnits="userSpaceOnUse"><stop offset="0" stop-color="#7c9eea"/><stop offset=".277" stop-color="#798ce6"/><stop offset=".737" stop-color="#7780e3"/><stop offset="1" stop-color="#7363dc"/></linearGradient><path fill="url(#HmR7yFzDwzQip~WPZtVBGe)" d="M32,23v17h-9.505C17.787,40,14,36.148,14,31.47S17.787,23,22.495,23H32z"/><linearGradient id="HmR7yFzDwzQip~WPZtVBGf" x1="23" x2="23" y1="40" y2="58" gradientUnits="userSpaceOnUse"><stop offset="0" stop-color="#00e49f"/><stop offset=".478" stop-color="#00da9e"/><stop offset="1" stop-color="#00ca9b"/></linearGradient><path fill="url(#HmR7yFzDwzQip~WPZtVBGf)" d="M22.977,58L22.977,58C18.019,58,14,53.981,14,49.024l0,0C14,44.066,17.771,40,22.728,40H32 v8.976C32,53.934,27.934,58,22.977,58z"/>
    </g>
    <g id="github">
        <path fill="#8b8e98" d="M31 3A28 28 0 1 0 31 59A28 28 0 1 0 31 3Z"/><path fill="#7e8189" d="M31,54A23,23,0,1,1,54,31,23,23,0,0,1,31,54Z"/><path fill="#faefde" d="M36.08,43.35A11,11,0,0,1,39,50v5.25c0,.55.23,2.13.9,2.31L31,59.18l-9-1.61c.72-.16,1-1.77,1-2.32s0-.91,0-3.25c-7.79,1.69-9.4-4.3-9.4-4.3-1.28-3.23-3.11-4.1-3.11-4.1-2.54-1.73.19-1.7.19-1.7A5.89,5.89,0,0,1,15,44.79c2.5,4.27,6.44,3.92,8,3.21.26-1.81,2.1-3.93,2.9-4.63-6.22-.71-12.76-3.11-12.76-13.84A10.83,10.83,0,0,1,16,22a10.09,10.09,0,0,1,.28-7.41s2.35-.75,7.7,2.87a26.61,26.61,0,0,1,14,0c5.34-3.62,7.69-2.87,7.69-2.87A10.09,10.09,0,0,1,46,22a10.83,10.83,0,0,1,2.87,7.51C48.86,40.29,42.32,42.66,36.08,43.35Z"/><path fill="#8d6c9f" d="M31,2a29,29,0,0,0-9.54,56.38,1,1,0,0,0,.55.19A29,29,0,1,0,31,2ZM23.7,57a6.22,6.22,0,0,0,.3-1.74v-.54c0-.45,0-1.06,0-2.72a1,1,0,0,0-1.21-1c-6.72,1.46-8.17-3.38-8.23-3.58l0-.11a9.44,9.44,0,0,0-3-4.24,5.37,5.37,0,0,1,2.56,2.2c2.64,4.53,7,4.65,9.3,3.62a1,1,0,0,0,.58-.77,8.62,8.62,0,0,1,2.56-4A1,1,0,0,0,26,42.38c-5.87-.67-11.87-2.72-11.87-12.84a9.82,9.82,0,0,1,2.62-6.84A1,1,0,0,0,17,21.64,8.84,8.84,0,0,1,17,15.55c.85,0,2.92.39,6.42,2.76a1,1,0,0,0,.83.14,25.56,25.56,0,0,1,13.48,0,1,1,0,0,0,.83-.14c3.51-2.38,5.59-2.74,6.41-2.77a8.87,8.87,0,0,1,.07,6.1,1,1,0,0,0,.19,1.05,9.82,9.82,0,0,1,2.61,6.84c0,10.13-6,12.17-11.89,12.82a1,1,0,0,0-.54,1.75A10.2,10.2,0,0,1,38,50v5.25A6.28,6.28,0,0,0,38.29,57,26.86,26.86,0,0,1,23.7,57Zm16.5-.6a4.13,4.13,0,0,1-.2-1.13V50a11.66,11.66,0,0,0-2-5.91c5.55-.94,11.89-3.82,11.89-14.56a11.76,11.76,0,0,0-2.74-7.73,11.44,11.44,0,0,0-.48-7.56,1,1,0,0,0-.62-.58c-.28-.09-2.85-.76-8.18,2.74a27.61,27.61,0,0,0-13.66,0c-5.33-3.5-7.9-2.83-8.18-2.74a1,1,0,0,0-.62.58,11.42,11.42,0,0,0-.48,7.56,11.75,11.75,0,0,0-2.74,7.73c0,10.65,6.23,13.58,11.73,14.56a9.51,9.51,0,0,0-1.74,3.16c-1.42.4-4.34.41-6.29-2.94a6.9,6.9,0,0,0-5.15-3.4c-.54,0-1.9.09-2.22,1.13s.91,2,1.46,2.4l.13.07c.06,0,1.52.8,2.6,3.53.23.71,2.22,6.1,9.35,5.15,0,.79,0,1.19,0,1.5v.56a4,4,0,0,1-.21,1.13,27,27,0,1,1,18.41,0Z"/><path fill="#8d6c9f" d="M31 37a1 1 0 0 0-1 1v2a1 1 0 0 0 2 0V38A1 1 0 0 0 31 37zM35.6 39.53A1 1 0 0 0 37.53 39L37 37.08a1 1 0 0 0-1.93.52zM21.75 34.52a1 1 0 0 0-1.37.37l-1 1.73a1 1 0 0 0 1.73 1l1-1.73A1 1 0 0 0 21.75 34.52zM40.88 37.62a1 1 0 1 0 1.73-1l-1-1.73a1 1 0 0 0-1.73 1zM26.21 36.37a1 1 0 0 0-1.22.71L24.47 39a1 1 0 1 0 1.93.52l.52-1.93A1 1 0 0 0 26.21 36.37zM41.35 9.46a22.71 22.71 0 0 0-2.3-1 1 1 0 0 0-.7 1.87 21.1 21.1 0 0 1 2.1.92 1 1 0 0 0 .45.11 1 1 0 0 0 .45-1.89zM34.65 7.29a23.08 23.08 0 0 0-15 2.72 1 1 0 0 0 .5 1.87 1 1 0 0 0 .49-.13A21.1 21.1 0 0 1 34.34 9.27a1 1 0 1 0 .32-2z"/>
    </g>
    <g id="telegram">
        <path fill="#85cbf8" d="M32 4A28 28 0 1 0 32 60A28 28 0 1 0 32 4Z"/><path fill="#8d6c9f" d="M32,61C16.01,61,3,47.991,3,32S16.01,3,32,3s29,13.009,29,29S47.99,61,32,61z M32,5 C17.112,5,5,17.112,5,32s12.112,27,27,27s27-12.112,27-27S46.888,5,32,5z"/><path fill="#8d6c9f" d="M9.979 39.605c-.431 0-.828-.28-.958-.714-.158-.529.142-1.086.671-1.245l1.916-.574c.529-.162 1.087.143 1.245.671s-.142 1.086-.671 1.245l-1.916.574C10.17 39.591 10.073 39.605 9.979 39.605zM12.251 44.78c-.341 0-.672-.174-.859-.487-.283-.474-.129-1.088.346-1.372l1.717-1.026c.472-.284 1.087-.129 1.371.345.283.474.129 1.088-.346 1.372l-1.717 1.026C12.603 44.735 12.426 44.78 12.251 44.78zM15.718 49.245c-.257 0-.513-.098-.708-.294-.39-.391-.39-1.024.002-1.414l1.416-1.413c.391-.391 1.023-.389 1.414.002.39.391.39 1.024-.002 1.414l-1.416 1.413C16.229 49.147 15.974 49.245 15.718 49.245zM20.173 52.722c-.176 0-.353-.046-.514-.143-.474-.284-.627-.898-.343-1.372l1.03-1.714c.284-.474.898-.627 1.372-.342.474.284.627.898.343 1.372l-1.03 1.714C20.844 52.549 20.513 52.722 20.173 52.722zM25.345 55.007c-.096 0-.192-.014-.289-.043-.528-.16-.828-.718-.668-1.247l.578-1.915c.159-.528.716-.827 1.246-.668.528.16.828.718.668 1.247l-.578 1.915C26.172 54.728 25.774 55.007 25.345 55.007z"/><g><path fill="#8d6c9f" d="M32,55c-0.553,0-1-0.448-1-1s0.447-1,1-1c11.579,0,21-9.42,21-21s-9.421-21-21-21s-21,9.42-21,21 c0,0.552-0.447,1-1,1s-1-0.448-1-1C9,19.318,19.317,9,32,9s23,10.318,23,23S44.683,55,32,55z"/></g><g><path fill="#fff8ee" d="M40.501,21.149c-0.734,0.29-21.568,9.074-21.568,9.074s-1.009,0.345-0.929,0.982 c0.08,0.637,0.903,0.929,0.903,0.929l5.362,1.805c0,0,1.619,5.309,1.938,6.317c0.319,1.009,0.574,1.033,0.574,1.033 c0.296,0.129,0.567-0.077,0.567-0.077l3.465-3.159l5.401,4.141c1.46,0.637,1.991-0.69,1.991-0.69l3.721-19.064 C42.256,20.964,41.276,20.844,40.501,21.149z"/></g><g><path fill="#8d6c9f" d="M36.96,43.366c-0.33,0-0.715-0.068-1.146-0.256l-0.208-0.123l-4.736-3.631l-2.848,2.595 c-0.388,0.301-0.966,0.502-1.548,0.291c-0.761-0.234-1.09-1.272-1.22-1.685c-0.261-0.821-1.383-4.494-1.792-5.835l-4.874-1.641 c-0.158-0.056-1.424-0.539-1.576-1.751c-0.134-1.067,0.776-1.773,1.598-2.053c0.786-0.334,20.788-8.767,21.524-9.058l0.001,0 c0.853-0.335,1.688-0.253,2.24,0.218c0.392,0.335,0.802,0.994,0.526,2.222l-3.768,19.217c-0.039,0.096-0.403,0.951-1.312,1.324 C37.603,43.289,37.312,43.366,36.96,43.366z M36.713,41.316c0.111,0.04,0.252,0.072,0.351,0.033 c0.082-0.034,0.151-0.122,0.188-0.175l3.693-18.926c0.019-0.083,0.03-0.151,0.037-0.208c-0.035,0.01-0.073,0.022-0.114,0.039 c-0.597,0.236-14.351,6.031-21.546,9.065c-0.033,0.012-0.065,0.025-0.097,0.039c0.01,0.004,0.019,0.008,0.028,0.012l5.822,1.96 l0.149,0.492c0.001,0,1.617,5.3,1.936,6.306c0.007,0.021,0.014,0.042,0.021,0.062l3.577-3.266L36.713,41.316z"/></g><g><path fill="#8d6c9f" d="M37.859,25.764c0.027-0.451-0.602-0.129-0.602-0.129l-13.098,8.113c0,0,1.729,5.5,2.048,6.509 c0.318,1.009,0.754,1.181,0.754,1.181l0.978-6.224c0,0,9.257-8.627,9.655-8.999C37.992,25.844,37.859,25.764,37.859,25.764z"/></g>
    </g>
    <g id="whatsapp">
        <path fill="#97e0bb" d="M3,32A29,29,0,1,1,16,56.2C13,57,6,59,6,59A94.15,94.15,0,0,0,8.36,48.81,28.87,28.87,0,0,1,3,32Z"/><path fill="#72caaf" d="M32 9A23 23 0 1 0 32 55A23 23 0 1 0 32 9Z"/><path fill="#faefde" d="M24,18l3,8-2.68,4.21L32,37l4,3.09L40,36l8,3-2.16,6.33-6.4,1.74L27.81,42.42s-8.64-6.44-11-14c-1.31-4.08,1.74-8.72,1.74-8.72Z"/><path fill="#8d6c9f" d="M46.95,37.52l-.42-.21s-4.41-2.2-5.25-2.49a2.43,2.43,0,0,0-3,.92l-.33.46a24.53,24.53,0,0,1-1.61,2.12.67.67,0,0,1-.71,0l-.24-.1a17.84,17.84,0,0,1-5.54-3.46,22.06,22.06,0,0,1-4-5c0-.07-.06-.12-.06-.12a2.31,2.31,0,0,1,.28-.36c.2-.25.39-.45.59-.66s.34-.36.51-.56l.08-.09a5,5,0,0,0,.89-1.29A2.53,2.53,0,0,0,28,24.47c-.12-.25-1-2.46-1.63-3.92l-.67-1.62h0c-.64-1.54-1.35-1.84-2.5-1.89-.28,0-.58,0-.93,0a4.71,4.71,0,0,0-3.42,1.29A9.2,9.2,0,0,0,16,25.22c0,3.41,2,6.69,3.27,8.4l.13.19c3.77,5.46,8.44,9.55,13.15,11.5C36.74,47,39,47.5,40.52,47.5a7.86,7.86,0,0,0,1.7-.19c2.25-.49,5.05-2.15,5.81-4.29.63-1.78.79-3.68.37-4.42A2.92,2.92,0,0,0,46.95,37.52Zm-.81,4.83c-.47,1.34-2.63,2.63-4.34,3-1,.22-2.58.55-8.46-1.89C29,41.66,24.62,37.82,21.07,32.67l-.21-.3C19.79,30.92,18,28.06,18,25.22a7.31,7.31,0,0,1,2.36-5.59A2.79,2.79,0,0,1,22.3,19c.3,0,.56,0,.83,0a2.42,2.42,0,0,1,.41,0,1.67,1.67,0,0,1,.35.62l.67,1.62c.9,2.18,1.54,3.74,1.68,4s.16.42.1.54a3.21,3.21,0,0,1-.61.86l-.08.09c-.15.18-.3.33-.45.49s-.46.49-.69.78a2.19,2.19,0,0,0-.39,2.75,23.71,23.71,0,0,0,4.39,5.45,20,20,0,0,0,6.12,3.82l.22.09a2.61,2.61,0,0,0,2.94-.53,25.38,25.38,0,0,0,1.78-2.32l.33-.46c.21-.29.35-.33.71-.2.56.2,3.78,1.77,5,2.4l.45.22.54.25A7.32,7.32,0,0,1,46.14,42.35Z"/><path fill="#8d6c9f" d="M32.06,2H32A30,30,0,0,0,2,32,29.66,29.66,0,0,0,7.41,49.16L4,59.45a1,1,0,0,0,1.25,1.27l10.7-3.42A30,30,0,1,0,32.06,2ZM32,60a27.82,27.82,0,0,1-15.4-4.62,1,1,0,0,0-.55-.17,1,1,0,0,0-.3,0l-9.27,3,3-8.9a1,1,0,0,0-.14-.91A27.69,27.69,0,0,1,4,32,28,28,0,0,1,32,4h0a28,28,0,0,1,0,56Z"/><path fill="#8d6c9f" d="M47.37 13.2a1 1 0 0 0-1.25 1.56 21.46 21.46 0 0 1 1.77 1.59 1 1 0 0 0 1.42-1.41A23.7 23.7 0 0 0 47.37 13.2zM26.93 10.65a21.72 21.72 0 0 1 12.38.4 22 22 0 0 1 3 1.26 1 1 0 0 0 .45.11 1 1 0 0 0 .45-1.89 24 24 0 0 0-3.29-1.37 23.67 23.67 0 0 0-13.52-.44 1 1 0 1 0 .51 1.93zM14.57 41.82a1 1 0 0 0-1.34-.45l-1.85.93a1 1 0 0 0 .9 1.79l1.85-.93A1 1 0 0 0 14.57 41.82zM16 45.88l-1.55 1.38a1 1 0 1 0 1.33 1.49l1.55-1.38A1 1 0 1 0 16 45.88zM11.51 33h.06a1 1 0 0 0 .06-2l-2.07-.12a1 1 0 0 0-.12 2zM21.17 49.25a1 1 0 0 0-1.39.29l-1.14 1.73a1 1 0 1 0 1.67 1.1l1.14-1.73A1 1 0 0 0 21.17 49.25zM12.93 37.08a1 1 0 0 0-1.18-.78l-2 .42a1 1 0 0 0 .2 2l.2 0 2-.42A1 1 0 0 0 12.93 37.08z"/>
    </g>
    <g id="linkedin">
        <rect width="50" height="50" x="7" y="7" fill="#58b5e8" rx="6" ry="6"/><path fill="#faefde" d="M19.5 19A3.5 3.5 0 1 0 19.5 26 3.5 3.5 0 1 0 19.5 19zM39.76 28c-2.21 0-5 1.78-6.19 2.79V29.46a1 1 0 0 0-1-1H27.48a1 1 0 0 0-1 1v21a1 1 0 0 0 1 1h5.4a1 1 0 0 0 1-1V39.88c0-3.16 1.78-5.34 3.89-5.34s3.37 2.39 3.37 5.51V50.48a1 1 0 0 0 1 1h5.4a1 1 0 0 0 1-1V38.77C48.4 33.44 47.37 28 39.76 28zM16 29H23V51H16z"/><path fill="#65c5ef" d="M11,7H53a4,4,0,0,1,4,4v0a3,3,0,0,1-3,3H10a3,3,0,0,1-3-3v0a4,4,0,0,1,4-4Z"/><path fill="#8d6c9f" d="M23 28H16a1 1 0 0 0-1 1V51a1 1 0 0 0 1 1h7a1 1 0 0 0 1-1V29A1 1 0 0 0 23 28zM22 50H17V30h5zM39.88 27.44a8.47 8.47 0 0 0-5.44 1.88V29a1 1 0 0 0-1-1H27a1 1 0 0 0-1 1V51a1 1 0 0 0 1 1h6.7a1 1 0 0 0 1-1V39.89c0-3.31.82-4.55 3-4.55s2.49 1.46 2.49 4.72V51a1 1 0 0 0 1 1h6.71a1 1 0 0 0 1-1V38.72C48.92 33.14 47.85 27.44 39.88 27.44zm7 22.56H42.21V40.06c0-2.35 0-6.72-4.49-6.72-5 0-5 4.93-5 6.55V50H28V30h4.43v2a1.08 1.08 0 0 0 1.09 1 1 1 0 0 0 .88-.53 6.07 6.07 0 0 1 5.46-3c5.87 0 7 3.55 7 9.29zM19.5 18A4.5 4.5 0 1 0 24 22.5 4.5 4.5 0 0 0 19.5 18zm0 7.33a2.83 2.83 0 1 1 2.83-2.83A2.83 2.83 0 0 1 19.5 25.33z"/><path fill="#8d6c9f" d="M51,6H13a7,7,0,0,0-7,7V51a7,7,0,0,0,7,7H51a7,7,0,0,0,7-7V13A7,7,0,0,0,51,6Zm5,45a5,5,0,0,1-5,5H13a5,5,0,0,1-5-5V13a5,5,0,0,1,5-5H51a5,5,0,0,1,5,5Z"/><path fill="#8d6c9f" d="M17 16a1 1 0 0 0 1-1V13a1 1 0 0 0-2 0v2A1 1 0 0 0 17 16zM12 12a1 1 0 0 0-1 1v2a1 1 0 0 0 2 0V13A1 1 0 0 0 12 12zM32 16a1 1 0 0 0 1-1V13a1 1 0 0 0-2 0v2A1 1 0 0 0 32 16zM37 16a1 1 0 0 0 1-1V13a1 1 0 0 0-2 0v2A1 1 0 0 0 37 16zM42 16a1 1 0 0 0 1-1V13a1 1 0 0 0-2 0v2A1 1 0 0 0 42 16zM47 16a1 1 0 0 0 1-1V13a1 1 0 0 0-2 0v2A1 1 0 0 0 47 16zM52 12a1 1 0 0 0-1 1v2a1 1 0 0 0 2 0V13A1 1 0 0 0 52 12zM22 16a1 1 0 0 0 1-1V13a1 1 0 0 0-2 0v2A1 1 0 0 0 22 16zM27 16a1 1 0 0 0 1-1V13a1 1 0 0 0-2 0v2A1 1 0 0 0 27 16z"/>
    </g>
    <g id="gmail">
        <rect width="58" height="42" x="3" y="9" fill="#faefde" rx="4" ry="4"/><path fill="#efd8be" d="M11 51L11 22 32 37 11 51z"/><path fill="#fff7f0" d="M32 28L6 9 58 9 32 28z"/><path fill="#ed7899" d="M31.58,28,7.78,10.51A3,3,0,0,0,3,12.93V47a4,4,0,0,0,4,4h4V22L31.67,37,53,22V51h4a4,4,0,0,0,4-4V12.83a3,3,0,0,0-4.74-2.44Z"/><path fill="#8d6c9f" d="M57,8H7a5,5,0,0,0-5,5V47a5,5,0,0,0,5,5H57a5,5,0,0,0,5-5V13A5,5,0,0,0,57,8Zm-1.85,2L32.59,26.34a1,1,0,0,1-1.17,0L8.85,10ZM12,48a1,1,0,0,0,1-1V45a1,1,0,0,0-1-1V23.75L30.24,37a3,3,0,0,0,3.52,0L52,23.75V44a1,1,0,0,0-1,1v2a1,1,0,0,0,1,1v2H12Zm48-1a3,3,0,0,1-3,3H54V21.79A1,1,0,0,0,52.41,21L32.59,35.34a1,1,0,0,1-1.17,0L11.59,21a1,1,0,0,0-1.59.81V50H7a3,3,0,0,1-3-3V13a3,3,0,0,1,1.79-2.74L30.24,28a3,3,0,0,0,3.52,0l24.45-17.7A3,3,0,0,1,60,13Z"/><path fill="#8d6c9f" d="M17 44a1 1 0 0 0-1 1v2a1 1 0 0 0 2 0V45A1 1 0 0 0 17 44zM22 44a1 1 0 0 0-1 1v2a1 1 0 0 0 2 0V45A1 1 0 0 0 22 44zM27 44a1 1 0 0 0-1 1v2a1 1 0 0 0 2 0V45A1 1 0 0 0 27 44zM32 44a1 1 0 0 0-1 1v2a1 1 0 0 0 2 0V45A1 1 0 0 0 32 44zM37 44a1 1 0 0 0-1 1v2a1 1 0 0 0 2 0V45A1 1 0 0 0 37 44zM42 44a1 1 0 0 0-1 1v2a1 1 0 0 0 2 0V45A1 1 0 0 0 42 44zM47 44a1 1 0 0 0-1 1v2a1 1 0 0 0 2 0V45A1 1 0 0 0 47 44z"/>
    </g>
</svg>