<svg xmlns="http://www.w3.org/2000/svg"  viewBox="0 0 48 48" width="48px" height="48px">
    <g id="css">
        <path fill="#0277BD" d="M41,5H7l3,34l14,4l14-4L41,5L41,5z"/><path fill="#039BE5" d="M24 8L24 39.9 35.2 36.7 37.7 8z"/><path fill="#FFF" d="M33.1 13L24 13 24 17 28.9 17 28.6 21 24 21 24 25 28.4 25 28.1 29.5 24 30.9 24 35.1 31.9 32.5 32.6 21 32.6 21z"/><path fill="#EEE" d="M24,13v4h-8.9l-0.3-4H24z M19.4,21l0.2,4H24v-4H19.4z M19.8,27h-4l0.3,5.5l7.9,2.6v-4.2l-4.1-1.4L19.8,27z"/>
    </g>
    <g id="figma">
        <path fill="#e64a19" d="M26,17h-8c-3.866,0-7-3.134-7-7v0c0-3.866,3.134-7,7-7h8V17z"/><path fill="#7c4dff" d="M25,31h-7c-3.866,0-7-3.134-7-7v0c0-3.866,3.134-7,7-7h7V31z"/><path fill="#66bb6a" d="M18,45L18,45c-3.866,0-7-3.134-7-7v0c0-3.866,3.134-7,7-7h7v7C25,41.866,21.866,45,18,45z"/><path fill="#ff7043" d="M32,17h-7V3h7c3.866,0,7,3.134,7,7v0C39,13.866,35.866,17,32,17z"/><circle cx="32" cy="24" r="7" fill="#29b6f6"/>
    </g>
    <g id="github">
        <path fill="#fff" d="M41,24c0,9.4-7.6,17-17,17S7,33.4,7,24S14.6,7,24,7S41,14.6,41,24z"/><path fill="#455a64" d="M21 41v-5.5c0-.3.2-.5.5-.5s.5.2.5.5V41h2v-6.5c0-.3.2-.5.5-.5s.5.2.5.5V41h2v-5.5c0-.3.2-.5.5-.5s.5.2.5.5V41h1.8c.2-.3.2-.6.2-1.1V36c0-2.2-1.9-5.2-4.3-5.2h-2.5c-2.3 0-4.3 3.1-4.3 5.2v3.9c0 .4.1.8.2 1.1L21 41 21 41zM40.1 26.4C40.1 26.4 40.1 26.4 40.1 26.4c0 0-1.3-.4-2.4-.4 0 0-.1 0-.1 0-1.1 0-2.9.3-2.9.3-.1 0-.1 0-.1-.1 0-.1 0-.1.1-.1.1 0 2-.3 3.1-.3 1.1 0 2.4.4 2.5.4.1 0 .1.1.1.2C40.2 26.3 40.2 26.4 40.1 26.4zM39.8 27.2C39.8 27.2 39.8 27.2 39.8 27.2c0 0-1.4-.4-2.6-.4-.9 0-3 .2-3.1.2-.1 0-.1 0-.1-.1 0-.1 0-.1.1-.1.1 0 2.2-.2 3.1-.2 1.3 0 2.6.4 2.6.4.1 0 .1.1.1.2C39.9 27.1 39.9 27.2 39.8 27.2zM7.8 26.4c-.1 0-.1 0-.1-.1 0-.1 0-.1.1-.2.8-.2 2.4-.5 3.3-.5.8 0 3.5.2 3.6.2.1 0 .1.1.1.1 0 .1-.1.1-.1.1 0 0-2.7-.2-3.5-.2C10.1 26 8.6 26.2 7.8 26.4 7.8 26.4 7.8 26.4 7.8 26.4zM8.2 27.9c0 0-.1 0-.1-.1 0-.1 0-.1 0-.2.1 0 1.4-.8 2.9-1 1.3-.2 4 .1 4.2.1.1 0 .1.1.1.1 0 .1-.1.1-.1.1 0 0 0 0 0 0 0 0-2.8-.3-4.1-.1C9.6 27.1 8.2 27.9 8.2 27.9 8.2 27.9 8.2 27.9 8.2 27.9z"/><path fill="#455a64" d="M14.2,23.5c0-4.4,4.6-8.5,10.3-8.5c5.7,0,10.3,4,10.3,8.5S31.5,31,24.5,31S14.2,27.9,14.2,23.5z"/><path fill="#455a64" d="M28.6 16.3c0 0 1.7-2.3 4.8-2.3 1.2 1.2.4 4.8 0 5.8L28.6 16.3zM20.4 16.3c0 0-1.7-2.3-4.8-2.3-1.2 1.2-.4 4.8 0 5.8L20.4 16.3zM20.1 35.9c0 0-2.3 0-2.8 0-1.2 0-2.3-.5-2.8-1.5-.6-1.1-1.1-2.3-2.6-3.3-.3-.2-.1-.4.4-.4.5.1 1.4.2 2.1 1.1.7.9 1.5 2 2.8 2 1.3 0 2.7 0 3.5-.9L20.1 35.9z"/><path fill="#00bcd4" d="M24,4C13,4,4,13,4,24s9,20,20,20s20-9,20-20S35,4,24,4z M24,40c-8.8,0-16-7.2-16-16S15.2,8,24,8 s16,7.2,16,16S32.8,40,24,40z"/>
    </g>
    <g id="html">
        <path fill="#E65100" d="M41,5H7l3,34l14,4l14-4L41,5L41,5z"/><path fill="#FF6D00" d="M24 8L24 39.9 35.2 36.7 37.7 8z"/><path fill="#FFF" d="M24,25v-4h8.6l-0.7,11.5L24,35.1v-4.2l4.1-1.4l0.3-4.5H24z M32.9,17l0.3-4H24v4H32.9z"/><path fill="#EEE" d="M24,30.9v4.2l-7.9-2.6L15.7,27h4l0.2,2.5L24,30.9z M19.1,17H24v-4h-9.1l0.7,12H24v-4h-4.6L19.1,17z"/>
    </g>
    <g id="email">
        <path fill="#e0e0e0" d="M5.5,40.5h37c1.933,0,3.5-1.567,3.5-3.5V11c0-1.933-1.567-3.5-3.5-3.5h-37C3.567,7.5,2,9.067,2,11v26C2,38.933,3.567,40.5,5.5,40.5z"/><path fill="#d9d9d9" d="M26,40.5h16.5c1.933,0,3.5-1.567,3.5-3.5V11c0-1.933-1.567-3.5-3.5-3.5h-37C3.567,7.5,2,9.067,2,11L26,40.5z"/><path fill="#eee" d="M6.745,40.5H42.5c1.933,0,3.5-1.567,3.5-3.5V11.5L6.745,40.5z"/><path fill="#e0e0e0" d="M25.745,40.5H42.5c1.933,0,3.5-1.567,3.5-3.5V11.5L18.771,31.616L25.745,40.5z"/><path fill="#ca3737" d="M42.5,9.5h-37C3.567,9.5,2,9.067,2,11v26c0,1.933,1.567,3.5,3.5,3.5H7V12h34v28.5h1.5c1.933,0,3.5-1.567,3.5-3.5V11C46,9.067,44.433,9.5,42.5,9.5z"/><path fill="#f5f5f5" d="M42.5,7.5H24H5.5C3.567,7.5,2,9.036,2,11c0,1.206,1.518,2.258,1.518,2.258L24,27.756l20.482-14.497c0,0,1.518-1.053,1.518-2.258C46,9.036,44.433,7.5,42.5,7.5z"/><path fill="#e84f4b" d="M43.246,7.582L24,21L4.754,7.582C3.18,7.919,2,9.297,2,11c0,1.206,1.518,2.258,1.518,2.258L24,27.756l20.482-14.497c0,0,1.518-1.053,1.518-2.258C46,9.297,44.82,7.919,43.246,7.582z"/>
    </g>
    <g id="js">
        <path fill="#ffd600" d="M6,42V6h36v36H6z"/><path fill="#000001" d="M29.538 32.947c.692 1.124 1.444 2.201 3.037 2.201 1.338 0 2.04-.665 2.04-1.585 0-1.101-.726-1.492-2.198-2.133l-.807-.344c-2.329-.988-3.878-2.226-3.878-4.841 0-2.41 1.845-4.244 4.728-4.244 2.053 0 3.528.711 4.592 2.573l-2.514 1.607c-.553-.988-1.151-1.377-2.078-1.377-.946 0-1.545.597-1.545 1.377 0 .964.6 1.354 1.985 1.951l.807.344C36.452 29.645 38 30.839 38 33.523 38 36.415 35.716 38 32.65 38c-2.999 0-4.702-1.505-5.65-3.368L29.538 32.947zM17.952 33.029c.506.906 1.275 1.603 2.381 1.603 1.058 0 1.667-.418 1.667-2.043V22h3.333v11.101c0 3.367-1.953 4.899-4.805 4.899-2.577 0-4.437-1.746-5.195-3.368L17.952 33.029z"/>
    </g>
    <g id="linkedin">
        <path fill="#0288D1" d="M42,37c0,2.762-2.238,5-5,5H11c-2.761,0-5-2.238-5-5V11c0-2.762,2.239-5,5-5h26c2.762,0,5,2.238,5,5V37z"/><path fill="#FFF" d="M12 19H17V36H12zM14.485 17h-.028C12.965 17 12 15.888 12 14.499 12 13.08 12.995 12 14.514 12c1.521 0 2.458 1.08 2.486 2.499C17 15.887 16.035 17 14.485 17zM36 36h-5v-9.099c0-2.198-1.225-3.698-3.192-3.698-1.501 0-2.313 1.012-2.707 1.99C24.957 25.543 25 26.511 25 27v9h-5V19h5v2.616C25.721 20.5 26.85 19 29.738 19c3.578 0 6.261 2.25 6.261 7.274L36 36 36 36z"/>
    </g>
    <g id="react">
        <path fill="#80deea" d="M24,34C11.1,34,1,29.6,1,24c0-5.6,10.1-10,23-10c12.9,0,23,4.4,23,10C47,29.6,36.9,34,24,34z M24,16	c-12.6,0-21,4.1-21,8c0,3.9,8.4,8,21,8s21-4.1,21-8C45,20.1,36.6,16,24,16z"/><path fill="#80deea" d="M15.1,44.6c-1,0-1.8-0.2-2.6-0.7C7.6,41.1,8.9,30.2,15.3,19l0,0c3-5.2,6.7-9.6,10.3-12.4c3.9-3,7.4-3.9,9.8-2.5	c2.5,1.4,3.4,4.9,2.8,9.8c-0.6,4.6-2.6,10-5.6,15.2c-3,5.2-6.7,9.6-10.3,12.4C19.7,43.5,17.2,44.6,15.1,44.6z M32.9,5.4	c-1.6,0-3.7,0.9-6,2.7c-3.4,2.7-6.9,6.9-9.8,11.9l0,0c-6.3,10.9-6.9,20.3-3.6,22.2c1.7,1,4.5,0.1,7.6-2.3c3.4-2.7,6.9-6.9,9.8-11.9	c2.9-5,4.8-10.1,5.4-14.4c0.5-4-0.1-6.8-1.8-7.8C34,5.6,33.5,5.4,32.9,5.4z"/><path fill="#80deea" d="M33,44.6c-5,0-12.2-6.1-17.6-15.6C8.9,17.8,7.6,6.9,12.5,4.1l0,0C17.4,1.3,26.2,7.8,32.7,19	c3,5.2,5,10.6,5.6,15.2c0.7,4.9-0.3,8.3-2.8,9.8C34.7,44.4,33.9,44.6,33,44.6z M13.5,5.8c-3.3,1.9-2.7,11.3,3.6,22.2	c6.3,10.9,14.1,16.1,17.4,14.2c1.7-1,2.3-3.8,1.8-7.8c-0.6-4.3-2.5-9.4-5.4-14.4C24.6,9.1,16.8,3.9,13.5,5.8L13.5,5.8z"/><circle cx="24" cy="24" r="4" fill="#80deea"/>
    </g>
    <g id="telegram">
        <path fill="#29b6f6" d="M24 4A20 20 0 1 0 24 44A20 20 0 1 0 24 4Z"/><path fill="#fff" d="M33.95,15l-3.746,19.126c0,0-0.161,0.874-1.245,0.874c-0.576,0-0.873-0.274-0.873-0.274l-8.114-6.733 l-3.97-2.001l-5.095-1.355c0,0-0.907-0.262-0.907-1.012c0-0.625,0.933-0.923,0.933-0.923l21.316-8.468 c-0.001-0.001,0.651-0.235,1.126-0.234C33.667,14,34,14.125,34,14.5C34,14.75,33.95,15,33.95,15z"/><path fill="#b0bec5" d="M23,30.505l-3.426,3.374c0,0-0.149,0.115-0.348,0.12c-0.069,0.002-0.143-0.009-0.219-0.043 l0.964-5.965L23,30.505z"/><path fill="#cfd8dc" d="M29.897,18.196c-0.169-0.22-0.481-0.26-0.701-0.093L16,26c0,0,2.106,5.892,2.427,6.912 c0.322,1.021,0.58,1.045,0.58,1.045l0.964-5.965l9.832-9.096C30.023,18.729,30.064,18.416,29.897,18.196z"/>
    </g>
    <g id="whatsapp">
        <path fill="#fff" d="M4.868,43.303l2.694-9.835C5.9,30.59,5.026,27.324,5.027,23.979C5.032,13.514,13.548,5,24.014,5c5.079,0.002,9.845,1.979,13.43,5.566c3.584,3.588,5.558,8.356,5.556,13.428c-0.004,10.465-8.522,18.98-18.986,18.98c-0.001,0,0,0,0,0h-0.008c-3.177-0.001-6.3-0.798-9.073-2.311L4.868,43.303z"/><path fill="#fff" d="M4.868,43.803c-0.132,0-0.26-0.052-0.355-0.148c-0.125-0.127-0.174-0.312-0.127-0.483l2.639-9.636c-1.636-2.906-2.499-6.206-2.497-9.556C4.532,13.238,13.273,4.5,24.014,4.5c5.21,0.002,10.105,2.031,13.784,5.713c3.679,3.683,5.704,8.577,5.702,13.781c-0.004,10.741-8.746,19.48-19.486,19.48c-3.189-0.001-6.344-0.788-9.144-2.277l-9.875,2.589C4.953,43.798,4.911,43.803,4.868,43.803z"/><path fill="#cfd8dc" d="M24.014,5c5.079,0.002,9.845,1.979,13.43,5.566c3.584,3.588,5.558,8.356,5.556,13.428c-0.004,10.465-8.522,18.98-18.986,18.98h-0.008c-3.177-0.001-6.3-0.798-9.073-2.311L4.868,43.303l2.694-9.835C5.9,30.59,5.026,27.324,5.027,23.979C5.032,13.514,13.548,5,24.014,5 M24.014,42.974C24.014,42.974,24.014,42.974,24.014,42.974C24.014,42.974,24.014,42.974,24.014,42.974 M24.014,42.974C24.014,42.974,24.014,42.974,24.014,42.974C24.014,42.974,24.014,42.974,24.014,42.974 M24.014,4C24.014,4,24.014,4,24.014,4C12.998,4,4.032,12.962,4.027,23.979c-0.001,3.367,0.849,6.685,2.461,9.622l-2.585,9.439c-0.094,0.345,0.002,0.713,0.254,0.967c0.19,0.192,0.447,0.297,0.711,0.297c0.085,0,0.17-0.011,0.254-0.033l9.687-2.54c2.828,1.468,5.998,2.243,9.197,2.244c11.024,0,19.99-8.963,19.995-19.98c0.002-5.339-2.075-10.359-5.848-14.135C34.378,6.083,29.357,4.002,24.014,4L24.014,4z"/><path fill="#40c351" d="M35.176,12.832c-2.98-2.982-6.941-4.625-11.157-4.626c-8.704,0-15.783,7.076-15.787,15.774c-0.001,2.981,0.833,5.883,2.413,8.396l0.376,0.597l-1.595,5.821l5.973-1.566l0.577,0.342c2.422,1.438,5.2,2.198,8.032,2.199h0.006c8.698,0,15.777-7.077,15.78-15.776C39.795,19.778,38.156,15.814,35.176,12.832z"/><path fill="#fff" fill-rule="evenodd" d="M19.268,16.045c-0.355-0.79-0.729-0.806-1.068-0.82c-0.277-0.012-0.593-0.011-0.909-0.011c-0.316,0-0.83,0.119-1.265,0.594c-0.435,0.475-1.661,1.622-1.661,3.956c0,2.334,1.7,4.59,1.937,4.906c0.237,0.316,3.282,5.259,8.104,7.161c4.007,1.58,4.823,1.266,5.693,1.187c0.87-0.079,2.807-1.147,3.202-2.255c0.395-1.108,0.395-2.057,0.277-2.255c-0.119-0.198-0.435-0.316-0.909-0.554s-2.807-1.385-3.242-1.543c-0.435-0.158-0.751-0.237-1.068,0.238c-0.316,0.474-1.225,1.543-1.502,1.859c-0.277,0.317-0.554,0.357-1.028,0.119c-0.474-0.238-2.002-0.738-3.815-2.354c-1.41-1.257-2.362-2.81-2.639-3.285c-0.277-0.474-0.03-0.731,0.208-0.968c0.213-0.213,0.474-0.554,0.712-0.831c0.237-0.277,0.316-0.475,0.474-0.791c0.158-0.317,0.079-0.594-0.04-0.831C20.612,19.329,19.69,16.983,19.268,16.045z" clip-rule="evenodd"/>
    </g>
    <g id="typescript">
        <rect width="36" height="36" x="6" y="6" fill="#1976d2"/><polygon fill="#fff" points="27.49,22 14.227,22 14.227,25.264 18.984,25.264 18.984,40 22.753,40 22.753,25.264 27.49,25.264"/><path fill="#fff" d="M39.194,26.084c0,0-1.787-1.192-3.807-1.192s-2.747,0.96-2.747,1.986 c0,2.648,7.381,2.383,7.381,7.712c0,8.209-11.254,4.568-11.254,4.568V35.22c0,0,2.152,1.622,4.733,1.622s2.483-1.688,2.483-1.92 c0-2.449-7.315-2.449-7.315-7.878c0-7.381,10.658-4.469,10.658-4.469L39.194,26.084z"/>
    </g>
</svg>